<?xml version="1.0" encoding="UTF-8"?>
<svg id="Layer_1" data-name="Layer 1" xmlns="http://www.w3.org/2000/svg" viewBox="0 0 200 200">
  <defs>
    <style>
      .cls-1, .cls-2 {
        stroke-width: 0px;
      }

      .cls-2 {
        fill: yellow;
      }
    </style>
  </defs>
  <g>
    <path class="cls-2" d="m151.38,183.16c-1.03,0-2.04-.25-2.99-.75l-48.74-25.62c-1.06-.56-2.25-.85-3.45-.85s-2.39.29-3.45.85l-48.74,25.62c-.95.5-1.95.75-2.99.75-1.86,0-3.71-.87-4.93-2.32-1.22-1.45-1.72-3.3-1.39-5.2l9.31-54.27c.41-2.41-.38-4.86-2.13-6.56L2.45,76.38c-1.79-1.74-2.4-4.2-1.62-6.58.77-2.38,2.71-4.01,5.18-4.37l54.49-7.92c2.42-.35,4.5-1.87,5.58-4.06L90.45,4.08c1.11-2.24,3.26-3.58,5.75-3.58s4.65,1.34,5.75,3.58l24.37,49.38c1.08,2.19,3.17,3.71,5.58,4.06l54.49,7.92c2.47.36,4.41,1.99,5.18,4.37.77,2.38.16,4.83-1.62,6.58l-39.43,38.43c-1.75,1.7-2.55,4.16-2.13,6.56l9.31,54.27c.33,1.9-.17,3.75-1.39,5.2-1.22,1.45-3.07,2.32-4.93,2.32Z"/>
    <path class="cls-1" d="m96.2,1c2.3,0,4.29,1.23,5.31,3.3l24.37,49.38c1.15,2.34,3.38,3.96,5.96,4.33l54.49,7.92c2.28.33,4.06,1.84,4.78,4.03.71,2.19.15,4.46-1.5,6.07l-39.43,38.43c-1.87,1.82-2.72,4.44-2.28,7.01l9.31,54.27c.3,1.75-.15,3.45-1.28,4.79-1.13,1.34-2.83,2.14-4.55,2.14-.95,0-1.88-.23-2.75-.7l-48.74-25.62c-1.13-.59-2.41-.91-3.68-.91s-2.55.31-3.68.91l-48.74,25.62c-.88.46-1.8.7-2.75.7-1.72,0-3.42-.8-4.55-2.14-1.13-1.34-1.58-3.04-1.28-4.79l9.31-54.27c.44-2.57-.41-5.19-2.28-7.01L2.79,76.02c-1.65-1.61-2.21-3.88-1.5-6.07.71-2.19,2.5-3.7,4.78-4.03l54.49-7.92c2.58-.37,4.81-1.99,5.96-4.33L90.89,4.3c1.02-2.07,3-3.3,5.31-3.3m0-1c-2.47,0-4.93,1.29-6.2,3.86l-24.37,49.38c-1.01,2.04-2.96,3.46-5.21,3.78l-54.49,7.92c-5.67.82-7.94,7.8-3.83,11.8l39.43,38.43c1.63,1.59,2.37,3.88,1.99,6.12l-9.31,54.27c-.77,4.47,2.79,8.1,6.82,8.1,1.06,0,2.16-.25,3.22-.81l48.74-25.62c1.01-.53,2.11-.79,3.22-.79s2.21.26,3.22.79l48.74,25.62c1.06.56,2.16.81,3.22.81,4.03,0,7.58-3.63,6.82-8.1l-9.31-54.27c-.38-2.24.36-4.53,1.99-6.12l39.43-38.43c4.11-4,1.84-10.97-3.83-11.8l-54.49-7.92c-2.25-.33-4.2-1.74-5.21-3.78L102.4,3.86c-1.27-2.57-3.74-3.86-6.2-3.86h0Z"/>
  </g>
</svg>